<svg width="31" height="33" viewBox="0 0 31 33" fill="none" xmlns="http://www.w3.org/2000/svg">
<path d="M30.3281 21.1173V11.4674C30.3281 10.3015 30.0213 9.15604 29.4383 8.14628C28.8554 7.13653 28.0169 6.298 27.0072 5.71499L18.6493 0.890026C17.6395 0.306962 16.4941 0 15.3281 0C14.1621 0 13.0167 0.306962 12.007 0.890026L3.64908 5.71499C2.63935 6.298 1.80088 7.13653 1.21794 8.14628C0.634989 9.15604 0.328103 10.3015 0.328125 11.4674V21.1173C0.328103 22.2833 0.634989 23.4287 1.21794 24.4385C1.80088 25.4482 2.63935 26.2867 3.64908 26.8698L12.007 31.6947C13.0168 32.2776 14.1622 32.5844 15.3281 32.5844C16.4941 32.5844 17.6395 32.2776 18.6493 31.6947L27.0072 26.8698C28.0169 26.2867 28.8554 25.4482 29.4383 24.4385C30.0213 23.4287 30.3281 22.2833 30.3281 21.1173Z" fill="url(#paint0_linear_512_3662)"/>
<path fill-rule="evenodd" clip-rule="evenodd" d="M10.9729 8.13281C11.2334 8.13273 11.4881 8.20991 11.7048 8.35458C11.9214 8.49926 12.0903 8.70493 12.19 8.94559C12.2898 9.18624 12.3159 9.45108 12.2651 9.70659C12.2144 9.9621 12.089 10.1968 11.9048 10.3811C11.7206 10.5653 11.4859 10.6908 11.2304 10.7416C10.9749 10.7925 10.7101 10.7664 10.4694 10.6667C10.2287 10.5671 10.023 10.3983 9.87825 10.1817C9.73351 9.96506 9.65625 9.7104 9.65625 9.44989C9.65625 9.10065 9.79496 8.76571 10.0419 8.51872C10.2888 8.27173 10.6237 8.13292 10.9729 8.13281Z" fill="white"/>
<mask id="mask0_512_3662" style="mask-type:luminance" maskUnits="userSpaceOnUse" x="9" y="8" width="4" height="3">
<path fill-rule="evenodd" clip-rule="evenodd" d="M10.9729 8.13281C11.2334 8.13273 11.4881 8.20991 11.7048 8.35458C11.9214 8.49926 12.0903 8.70493 12.19 8.94559C12.2898 9.18624 12.3159 9.45108 12.2651 9.70659C12.2144 9.9621 12.089 10.1968 11.9048 10.3811C11.7206 10.5653 11.4859 10.6908 11.2304 10.7416C10.9749 10.7925 10.7101 10.7664 10.4694 10.6667C10.2287 10.5671 10.023 10.3983 9.87825 10.1817C9.73351 9.96506 9.65625 9.7104 9.65625 9.44989C9.65625 9.10065 9.79496 8.76571 10.0419 8.51872C10.2888 8.27173 10.6237 8.13292 10.9729 8.13281Z" fill="white"/>
</mask>
<g mask="url(#mask0_512_3662)">
<path d="M12.2896 8.13281H9.65625V10.7662H12.2896V8.13281Z" fill="white"/>
</g>
<path fill-rule="evenodd" clip-rule="evenodd" d="M7.01339 11.0083C7.43902 11.0083 7.8551 11.1345 8.209 11.371C8.56291 11.6075 8.83874 11.9436 9.00163 12.3368C9.16451 12.73 9.20713 13.1627 9.12409 13.5802C9.04105 13.9977 8.83609 14.3811 8.53512 14.6821C8.23415 14.9831 7.85069 15.188 7.43323 15.2711C7.01577 15.3541 6.58307 15.3115 6.18983 15.1486C5.79659 14.9857 5.46049 14.7099 5.22402 14.356C4.98755 14.0021 4.86133 13.586 4.86133 13.1604C4.86128 12.8777 4.9169 12.5979 5.02504 12.3367C5.13317 12.0756 5.29169 11.8384 5.49153 11.6385C5.69138 11.4387 5.92864 11.2801 6.18977 11.172C6.45089 11.0639 6.73076 11.0082 7.01339 11.0083Z" fill="white"/>
<mask id="mask1_512_3662" style="mask-type:luminance" maskUnits="userSpaceOnUse" x="4" y="11" width="6" height="5">
<path fill-rule="evenodd" clip-rule="evenodd" d="M7.01339 11.0083C7.43902 11.0083 7.8551 11.1345 8.209 11.371C8.56291 11.6075 8.83874 11.9436 9.00163 12.3368C9.16451 12.73 9.20713 13.1627 9.12409 13.5802C9.04105 13.9977 8.83609 14.3811 8.53512 14.6821C8.23415 14.9831 7.85069 15.188 7.43323 15.2711C7.01577 15.3541 6.58307 15.3115 6.18983 15.1486C5.79659 14.9857 5.46049 14.7099 5.22402 14.356C4.98755 14.0021 4.86133 13.586 4.86133 13.1604C4.86128 12.8777 4.9169 12.5979 5.02504 12.3367C5.13317 12.0756 5.29169 11.8384 5.49153 11.6385C5.69138 11.4387 5.92864 11.2801 6.18977 11.172C6.45089 11.0639 6.73076 11.0082 7.01339 11.0083Z" fill="white"/>
</mask>
<g mask="url(#mask1_512_3662)">
<path d="M9.16504 11.0083H4.86133V15.312H9.16504V11.0083Z" fill="white"/>
</g>
<path fill-rule="evenodd" clip-rule="evenodd" d="M11.5338 15.9927C11.8437 15.9927 12.1467 16.0846 12.4044 16.2568C12.6621 16.4289 12.8629 16.6737 12.9815 16.96C13.1001 17.2463 13.1312 17.5614 13.0707 17.8654C13.0102 18.1694 12.861 18.4486 12.6418 18.6677C12.4227 18.8869 12.1435 19.0361 11.8395 19.0966C11.5355 19.157 11.2205 19.126 10.9341 19.0074C10.6478 18.8888 10.4031 18.688 10.2309 18.4303C10.0587 18.1726 9.9668 17.8696 9.9668 17.5597C9.9668 17.1441 10.1319 16.7455 10.4258 16.4516C10.7196 16.1578 11.1182 15.9927 11.5338 15.9927Z" fill="white"/>
<mask id="mask2_512_3662" style="mask-type:luminance" maskUnits="userSpaceOnUse" x="9" y="15" width="5" height="5">
<path fill-rule="evenodd" clip-rule="evenodd" d="M11.5338 15.9927C11.8437 15.9927 12.1467 16.0846 12.4044 16.2568C12.6621 16.4289 12.8629 16.6737 12.9815 16.96C13.1001 17.2463 13.1312 17.5614 13.0707 17.8654C13.0102 18.1694 12.861 18.4486 12.6418 18.6677C12.4227 18.8869 12.1435 19.0361 11.8395 19.0966C11.5355 19.157 11.2205 19.126 10.9341 19.0074C10.6478 18.8888 10.4031 18.688 10.2309 18.4303C10.0587 18.1726 9.9668 17.8696 9.9668 17.5597C9.9668 17.1441 10.1319 16.7455 10.4258 16.4516C10.7196 16.1578 11.1182 15.9927 11.5338 15.9927Z" fill="white"/>
</mask>
<g mask="url(#mask2_512_3662)">
<path d="M13.1008 15.9927H9.9668V19.1267H13.1008V15.9927Z" fill="white"/>
</g>
<path fill-rule="evenodd" clip-rule="evenodd" d="M15.455 11.2891C15.8205 11.2891 16.1777 11.3974 16.4815 11.6004C16.7854 11.8035 17.0222 12.092 17.162 12.4296C17.3019 12.7672 17.3384 13.1387 17.2672 13.4971C17.1959 13.8555 17.0199 14.1848 16.7615 14.4431C16.5031 14.7015 16.1739 14.8775 15.8155 14.9488C15.4571 15.0201 15.0856 14.9835 14.748 14.8437C14.4104 14.7038 14.1218 14.467 13.9188 14.1632C13.7158 13.8593 13.6074 13.5021 13.6074 13.1367C13.6075 12.6467 13.8022 12.1768 14.1487 11.8303C14.4952 11.4839 14.9651 11.2892 15.455 11.2891Z" fill="white"/>
<mask id="mask3_512_3662" style="mask-type:luminance" maskUnits="userSpaceOnUse" x="13" y="11" width="5" height="4">
<path fill-rule="evenodd" clip-rule="evenodd" d="M15.455 11.2891C15.8205 11.2891 16.1777 11.3974 16.4815 11.6004C16.7854 11.8035 17.0222 12.092 17.162 12.4296C17.3019 12.7672 17.3384 13.1387 17.2672 13.4971C17.1959 13.8555 17.0199 14.1848 16.7615 14.4431C16.5031 14.7015 16.1739 14.8775 15.8155 14.9488C15.4571 15.0201 15.0856 14.9835 14.748 14.8437C14.4104 14.7038 14.1218 14.467 13.9188 14.1632C13.7158 13.8593 13.6074 13.5021 13.6074 13.1367C13.6075 12.6467 13.8022 12.1768 14.1487 11.8303C14.4952 11.4839 14.9651 11.2892 15.455 11.2891Z" fill="white"/>
</mask>
<g mask="url(#mask3_512_3662)">
<path d="M17.3031 11.2891H13.6074V14.9847H17.3031V11.2891Z" fill="white"/>
</g>
<path fill-rule="evenodd" clip-rule="evenodd" d="M18.5399 6.79883C18.8491 6.79883 19.1514 6.89051 19.4085 7.06228C19.6655 7.23404 19.8659 7.47818 19.9843 7.76383C20.1026 8.04947 20.1336 8.3638 20.0733 8.66705C20.013 8.9703 19.8641 9.24887 19.6455 9.46753C19.4269 9.68618 19.1484 9.83511 18.8452 9.89548C18.5419 9.95585 18.2276 9.92495 17.9419 9.80668C17.6563 9.68841 17.4121 9.4881 17.2402 9.23105C17.0684 8.97401 16.9766 8.67179 16.9766 8.3626C16.9766 7.94793 17.1413 7.55024 17.4344 7.25699C17.7276 6.96374 18.1253 6.79894 18.5399 6.79883Z" fill="white"/>
<mask id="mask4_512_3662" style="mask-type:luminance" maskUnits="userSpaceOnUse" x="16" y="6" width="5" height="4">
<path fill-rule="evenodd" clip-rule="evenodd" d="M18.5399 6.79883C18.8491 6.79883 19.1514 6.89051 19.4085 7.06228C19.6655 7.23404 19.8659 7.47818 19.9843 7.76383C20.1026 8.04947 20.1336 8.3638 20.0733 8.66705C20.013 8.9703 19.8641 9.24887 19.6455 9.46753C19.4269 9.68618 19.1484 9.83511 18.8452 9.89548C18.5419 9.95585 18.2276 9.92495 17.9419 9.80668C17.6563 9.68841 17.4121 9.4881 17.2402 9.23105C17.0684 8.97401 16.9766 8.67179 16.9766 8.3626C16.9766 7.94793 17.1413 7.55024 17.4344 7.25699C17.7276 6.96374 18.1253 6.79894 18.5399 6.79883Z" fill="white"/>
</mask>
<g mask="url(#mask4_512_3662)">
<path d="M20.1033 6.79883H16.9766V9.92557H20.1033V6.79883Z" fill="white"/>
</g>
<path fill-rule="evenodd" clip-rule="evenodd" d="M16.8092 18.7134C17.1192 18.7133 17.4223 18.8052 17.6801 18.9773C17.9379 19.1495 18.1389 19.3943 18.2576 19.6807C18.3763 19.9671 18.4074 20.2823 18.3469 20.5863C18.2865 20.8904 18.1373 21.1697 17.9181 21.389C17.6989 21.6082 17.4196 21.7575 17.1155 21.818C16.8115 21.8786 16.4963 21.8475 16.2099 21.7289C15.9234 21.6103 15.6786 21.4094 15.5064 21.1516C15.3341 20.8939 15.2422 20.5908 15.2422 20.2808C15.2421 20.075 15.2826 19.8712 15.3614 19.681C15.4401 19.4908 15.5555 19.318 15.701 19.1725C15.8465 19.0269 16.0193 18.9115 16.2094 18.8327C16.3996 18.7539 16.6034 18.7134 16.8092 18.7134Z" fill="white"/>
<mask id="mask5_512_3662" style="mask-type:luminance" maskUnits="userSpaceOnUse" x="15" y="18" width="4" height="4">
<path fill-rule="evenodd" clip-rule="evenodd" d="M16.8092 18.7134C17.1192 18.7133 17.4223 18.8052 17.6801 18.9773C17.9379 19.1495 18.1389 19.3943 18.2576 19.6807C18.3763 19.9671 18.4074 20.2823 18.3469 20.5863C18.2865 20.8904 18.1373 21.1697 17.9181 21.389C17.6989 21.6082 17.4196 21.7575 17.1155 21.818C16.8115 21.8786 16.4963 21.8475 16.2099 21.7289C15.9234 21.6103 15.6786 21.4094 15.5064 21.1516C15.3341 20.8939 15.2422 20.5908 15.2422 20.2808C15.2421 20.075 15.2826 19.8712 15.3614 19.681C15.4401 19.4908 15.5555 19.318 15.701 19.1725C15.8465 19.0269 16.0193 18.9115 16.2094 18.8327C16.3996 18.7539 16.6034 18.7134 16.8092 18.7134Z" fill="white"/>
</mask>
<g mask="url(#mask5_512_3662)">
<path d="M18.3762 18.7134H15.2422V21.8474H18.3762V18.7134Z" fill="white"/>
</g>
<path fill-rule="evenodd" clip-rule="evenodd" d="M22.684 17.9549C23.0494 17.955 23.4066 18.0634 23.7104 18.2665C24.0142 18.4696 24.251 18.7583 24.3907 19.0959C24.5305 19.4336 24.567 19.8051 24.4956 20.1635C24.4242 20.5219 24.2481 20.8511 23.9896 21.1094C23.7311 21.3677 23.4018 21.5436 23.0434 21.6148C22.6849 21.6859 22.3134 21.6492 21.9758 21.5092C21.6383 21.3693 21.3498 21.1323 21.1469 20.8284C20.944 20.5244 20.8358 20.1672 20.8359 19.8017C20.8359 19.5591 20.8837 19.3188 20.9766 19.0946C21.0695 18.8704 21.2056 18.6667 21.3772 18.4951C21.5488 18.3235 21.7526 18.1875 21.9768 18.0946C22.201 18.0018 22.4413 17.954 22.684 17.9541" fill="white"/>
<mask id="mask6_512_3662" style="mask-type:luminance" maskUnits="userSpaceOnUse" x="20" y="17" width="5" height="5">
<path fill-rule="evenodd" clip-rule="evenodd" d="M22.684 17.9549C23.0494 17.955 23.4066 18.0634 23.7104 18.2665C24.0142 18.4696 24.251 18.7583 24.3907 19.0959C24.5305 19.4336 24.567 19.8051 24.4956 20.1635C24.4242 20.5219 24.2481 20.8511 23.9896 21.1094C23.7311 21.3677 23.4018 21.5436 23.0434 21.6148C22.6849 21.6859 22.3134 21.6492 21.9758 21.5092C21.6383 21.3693 21.3498 21.1323 21.1469 20.8284C20.944 20.5244 20.8358 20.1672 20.8359 19.8017C20.8359 19.5591 20.8837 19.3188 20.9766 19.0946C21.0695 18.8704 21.2056 18.6667 21.3772 18.4951C21.5488 18.3235 21.7526 18.1875 21.9768 18.0946C22.201 18.0018 22.4413 17.954 22.684 17.9541" fill="white"/>
</mask>
<g mask="url(#mask6_512_3662)">
<path d="M24.5316 17.9551H20.8359V21.6507H24.5316V17.9551Z" fill="white"/>
</g>
<path fill-rule="evenodd" clip-rule="evenodd" d="M24.5319 11.3398C24.8418 11.3398 25.1447 11.4317 25.4024 11.6039C25.6601 11.7761 25.861 12.0208 25.9796 12.3072C26.0982 12.5935 26.1292 12.9086 26.0687 13.2126C26.0083 13.5165 25.859 13.7957 25.6399 14.0149C25.4207 14.234 25.1415 14.3833 24.8376 14.4437C24.5336 14.5042 24.2185 14.4732 23.9322 14.3546C23.6459 14.236 23.4011 14.0351 23.2289 13.7774C23.0567 13.5197 22.9648 13.2168 22.9648 12.9068C22.9648 12.7011 23.0053 12.4973 23.084 12.3071C23.1628 12.117 23.2782 11.9442 23.4237 11.7987C23.5692 11.6532 23.742 11.5377 23.9321 11.459C24.1223 11.3803 24.3261 11.3398 24.5319 11.3398Z" fill="white"/>
<mask id="mask7_512_3662" style="mask-type:luminance" maskUnits="userSpaceOnUse" x="22" y="11" width="5" height="4">
<path fill-rule="evenodd" clip-rule="evenodd" d="M24.5319 11.3398C24.8418 11.3398 25.1447 11.4317 25.4024 11.6039C25.6601 11.7761 25.861 12.0208 25.9796 12.3072C26.0982 12.5935 26.1292 12.9086 26.0687 13.2126C26.0083 13.5165 25.859 13.7957 25.6399 14.0149C25.4207 14.234 25.1415 14.3833 24.8376 14.4437C24.5336 14.5042 24.2185 14.4732 23.9322 14.3546C23.6459 14.236 23.4011 14.0351 23.2289 13.7774C23.0567 13.5197 22.9648 13.2168 22.9648 12.9068C22.9648 12.7011 23.0053 12.4973 23.084 12.3071C23.1628 12.117 23.2782 11.9442 23.4237 11.7987C23.5692 11.6532 23.742 11.5377 23.9321 11.459C24.1223 11.3803 24.3261 11.3398 24.5319 11.3398Z" fill="white"/>
</mask>
<g mask="url(#mask7_512_3662)">
<path d="M26.0989 11.3398H22.9648V14.4739H26.0989V11.3398Z" fill="white"/>
</g>
<path fill-rule="evenodd" clip-rule="evenodd" d="M20.2044 13.4404C20.445 13.4403 20.6803 13.5116 20.8804 13.6453C21.0805 13.7789 21.2365 13.9689 21.3286 14.1911C21.4208 14.4134 21.4449 14.658 21.398 14.8941C21.3511 15.1301 21.2353 15.3469 21.0652 15.517C20.8951 15.6872 20.6783 15.8031 20.4423 15.8501C20.2063 15.8971 19.9617 15.873 19.7394 15.7809C19.517 15.6889 19.327 15.5329 19.1933 15.3329C19.0596 15.1328 18.9883 14.8976 18.9883 14.657C18.9883 14.3344 19.1164 14.025 19.3445 13.7969C19.5725 13.5688 19.8818 13.4405 20.2044 13.4404Z" fill="white"/>
<mask id="mask8_512_3662" style="mask-type:luminance" maskUnits="userSpaceOnUse" x="18" y="13" width="4" height="3">
<path fill-rule="evenodd" clip-rule="evenodd" d="M20.2044 13.4404C20.445 13.4403 20.6803 13.5116 20.8804 13.6453C21.0805 13.7789 21.2365 13.9689 21.3286 14.1911C21.4208 14.4134 21.4449 14.658 21.398 14.8941C21.3511 15.1301 21.2353 15.3469 21.0652 15.517C20.8951 15.6872 20.6783 15.8031 20.4423 15.8501C20.2063 15.8971 19.9617 15.873 19.7394 15.7809C19.517 15.6889 19.327 15.5329 19.1933 15.3329C19.0596 15.1328 18.9883 14.8976 18.9883 14.657C18.9883 14.3344 19.1164 14.025 19.3445 13.7969C19.5725 13.5688 19.8818 13.4405 20.2044 13.4404Z" fill="white"/>
</mask>
<g mask="url(#mask8_512_3662)">
<path d="M21.421 13.4404H18.9883V15.8731H21.421V13.4404Z" fill="white"/>
</g>
<path d="M7.03125 12.5974L10.9591 8.98166L15.3746 12.6155L18.677 7.50146L20.4838 14.3352L23.9816 13.1642L24.257 12.603L25.3451 12.9103L24.3305 13.5684L19.9258 14.9856L18.4036 9.22432L15.5369 13.6609L10.9845 9.91597L7.50809 13.1166L7.03125 12.5974Z" fill="white"/>
<mask id="mask9_512_3662" style="mask-type:luminance" maskUnits="userSpaceOnUse" x="7" y="7" width="19" height="8">
<path d="M7.03125 12.5974L10.9591 8.98166L15.3746 12.6155L18.677 7.50146L20.4838 14.3352L23.9816 13.1642L24.257 12.603L25.3451 12.9103L24.3305 13.5684L19.9258 14.9856L18.4036 9.22432L15.5369 13.6609L10.9845 9.91597L7.50809 13.1166L7.03125 12.5974Z" fill="white"/>
</mask>
<g mask="url(#mask9_512_3662)">
<path d="M25.3451 7.5H7.03125V15.5841H25.3451V7.5Z" fill="white"/>
</g>
<path d="M15.7235 13.3687L12.3723 17.2566L17.2663 19.661H22.8947V20.3684H17.1883L17.0337 20.3308L11.2441 17.4863L15.1909 12.9072L15.7235 13.3687Z" fill="white"/>
<mask id="mask10_512_3662" style="mask-type:luminance" maskUnits="userSpaceOnUse" x="11" y="12" width="12" height="9">
<path d="M15.7235 13.3687L12.3723 17.2566L17.2663 19.661H22.8947V20.3684H17.1883L17.0337 20.3308L11.2441 17.4863L15.1909 12.9072L15.7235 13.3687Z" fill="white"/>
</mask>
<g mask="url(#mask10_512_3662)">
<path d="M22.8955 12.9072H11.2441V20.3684H22.8955V12.9072Z" fill="white"/>
</g>
<path fill-rule="evenodd" clip-rule="evenodd" d="M14.8687 8.40453C14.9991 8.40429 15.1267 8.44277 15.2353 8.51511C15.3438 8.58744 15.4285 8.69036 15.4785 8.81084C15.5285 8.93132 15.5416 9.06393 15.5162 9.19188C15.4908 9.31982 15.4279 9.43734 15.3357 9.52956C15.2434 9.62177 15.1258 9.68452 14.9979 9.70986C14.8699 9.7352 14.7373 9.72199 14.6169 9.6719C14.4964 9.62182 14.3936 9.53711 14.3213 9.42851C14.249 9.31991 14.2106 9.1923 14.2109 9.06186C14.2109 8.8872 14.2803 8.7197 14.4038 8.5962C14.5273 8.4727 14.6948 8.40332 14.8695 8.40332" fill="white"/>
<mask id="mask11_512_3662" style="mask-type:luminance" maskUnits="userSpaceOnUse" x="14" y="8" width="2" height="2">
<path fill-rule="evenodd" clip-rule="evenodd" d="M14.8687 8.40453C14.9991 8.40429 15.1267 8.44277 15.2353 8.51511C15.3438 8.58744 15.4285 8.69036 15.4785 8.81084C15.5285 8.93132 15.5416 9.06393 15.5162 9.19188C15.4908 9.31982 15.4279 9.43734 15.3357 9.52956C15.2434 9.62177 15.1258 9.68452 14.9979 9.70986C14.8699 9.7352 14.7373 9.72199 14.6169 9.6719C14.4964 9.62182 14.3936 9.53711 14.3213 9.42851C14.249 9.31991 14.2106 9.1923 14.2109 9.06186C14.2109 8.8872 14.2803 8.7197 14.4038 8.5962C14.5273 8.4727 14.6948 8.40332 14.8695 8.40332" fill="white"/>
</mask>
<g mask="url(#mask11_512_3662)">
<path d="M15.5284 8.40479H14.2109V9.72226H15.5284V8.40479Z" fill="white"/>
</g>
<path fill-rule="evenodd" clip-rule="evenodd" d="M11.4578 12.9712C11.5881 12.9712 11.7155 13.0098 11.8239 13.0823C11.9323 13.1547 12.0167 13.2576 12.0666 13.3781C12.1165 13.4985 12.1295 13.631 12.104 13.7588C12.0786 13.8867 12.0158 14.0041 11.9236 14.0962C11.8314 14.1884 11.7139 14.2511 11.5861 14.2765C11.4582 14.3018 11.3257 14.2887 11.2053 14.2388C11.0849 14.1889 10.982 14.1043 10.9097 13.9959C10.8373 13.8875 10.7987 13.7601 10.7988 13.6297C10.7988 13.5432 10.8159 13.4575 10.849 13.3776C10.8821 13.2977 10.9307 13.2251 10.9919 13.1639C11.053 13.1028 11.1257 13.0543 11.2056 13.0212C11.2856 12.9881 11.3713 12.9711 11.4578 12.9712Z" fill="white"/>
<mask id="mask12_512_3662" style="mask-type:luminance" maskUnits="userSpaceOnUse" x="10" y="12" width="3" height="3">
<path fill-rule="evenodd" clip-rule="evenodd" d="M11.4578 12.9712C11.5881 12.9712 11.7155 13.0098 11.8239 13.0823C11.9323 13.1547 12.0167 13.2576 12.0666 13.3781C12.1165 13.4985 12.1295 13.631 12.104 13.7588C12.0786 13.8867 12.0158 14.0041 11.9236 14.0962C11.8314 14.1884 11.7139 14.2511 11.5861 14.2765C11.4582 14.3018 11.3257 14.2887 11.2053 14.2388C11.0849 14.1889 10.982 14.1043 10.9097 13.9959C10.8373 13.8875 10.7987 13.7601 10.7988 13.6297C10.7988 13.5432 10.8159 13.4575 10.849 13.3776C10.8821 13.2977 10.9307 13.2251 10.9919 13.1639C11.053 13.1028 11.1257 13.0543 11.2056 13.0212C11.2856 12.9881 11.3713 12.9711 11.4578 12.9712Z" fill="white"/>
</mask>
<g mask="url(#mask12_512_3662)">
<path d="M12.1163 12.9712H10.7988V14.2887H12.1163V12.9712Z" fill="white"/>
</g>
<path fill-rule="evenodd" clip-rule="evenodd" d="M21.5304 11.5894C21.6607 11.5894 21.7881 11.6281 21.8964 11.7006C22.0047 11.7731 22.0891 11.876 22.1389 11.9964C22.1887 12.1168 22.2017 12.2493 22.1763 12.3771C22.1508 12.5049 22.088 12.6223 21.9958 12.7144C21.9037 12.8065 21.7862 12.8692 21.6584 12.8946C21.5306 12.92 21.3982 12.9069 21.2778 12.857C21.1574 12.8072 21.0545 12.7227 20.9821 12.6143C20.9097 12.506 20.8711 12.3786 20.8711 12.2483C20.8711 12.0736 20.9405 11.9061 21.0639 11.7825C21.1874 11.6589 21.3549 11.5895 21.5296 11.5894" fill="white"/>
<mask id="mask13_512_3662" style="mask-type:luminance" maskUnits="userSpaceOnUse" x="20" y="11" width="3" height="2">
<path fill-rule="evenodd" clip-rule="evenodd" d="M21.5304 11.5894C21.6607 11.5894 21.7881 11.6281 21.8964 11.7006C22.0047 11.7731 22.0891 11.876 22.1389 11.9964C22.1887 12.1168 22.2017 12.2493 22.1763 12.3771C22.1508 12.5049 22.088 12.6223 21.9958 12.7144C21.9037 12.8065 21.7862 12.8692 21.6584 12.8946C21.5306 12.92 21.3982 12.9069 21.2778 12.857C21.1574 12.8072 21.0545 12.7227 20.9821 12.6143C20.9097 12.506 20.8711 12.3786 20.8711 12.2483C20.8711 12.0736 20.9405 11.9061 21.0639 11.7825C21.1874 11.6589 21.3549 11.5895 21.5296 11.5894" fill="white"/>
</mask>
<g mask="url(#mask13_512_3662)">
<path d="M22.1886 11.5894H20.8711V12.9068H22.1886V11.5894Z" fill="white"/>
</g>
<path fill-rule="evenodd" clip-rule="evenodd" d="M17.7015 16.209C17.8318 16.2089 17.9593 16.2475 18.0677 16.3198C18.1761 16.3922 18.2606 16.4951 18.3106 16.6155C18.3605 16.7359 18.3736 16.8684 18.3482 16.9962C18.3229 17.1241 18.2601 17.2415 18.168 17.3337C18.0759 17.4259 17.9584 17.4887 17.8306 17.5142C17.7028 17.5396 17.5703 17.5266 17.4498 17.4767C17.3294 17.4269 17.2265 17.3424 17.1541 17.2341C17.0816 17.1257 17.043 16.9983 17.043 16.8679C17.043 16.6932 17.1123 16.5257 17.2358 16.4021C17.3593 16.2786 17.5268 16.2091 17.7015 16.209Z" fill="white"/>
<mask id="mask14_512_3662" style="mask-type:luminance" maskUnits="userSpaceOnUse" x="17" y="16" width="2" height="2">
<path fill-rule="evenodd" clip-rule="evenodd" d="M17.7015 16.209C17.8318 16.2089 17.9593 16.2475 18.0677 16.3198C18.1761 16.3922 18.2606 16.4951 18.3106 16.6155C18.3605 16.7359 18.3736 16.8684 18.3482 16.9962C18.3229 17.1241 18.2601 17.2415 18.168 17.3337C18.0759 17.4259 17.9584 17.4887 17.8306 17.5142C17.7028 17.5396 17.5703 17.5266 17.4498 17.4767C17.3294 17.4269 17.2265 17.3424 17.1541 17.2341C17.0816 17.1257 17.043 16.9983 17.043 16.8679C17.043 16.6932 17.1123 16.5257 17.2358 16.4021C17.3593 16.2786 17.5268 16.2091 17.7015 16.209Z" fill="white"/>
</mask>
<g mask="url(#mask14_512_3662)">
<path d="M18.3604 16.2095H17.043V17.527H18.3604V16.2095Z" fill="white"/>
</g>
<path fill-rule="evenodd" clip-rule="evenodd" d="M18.1221 11.9414C18.1995 11.9415 18.2751 11.9645 18.3394 12.0075C18.4037 12.0506 18.4537 12.1117 18.4833 12.1832C18.5128 12.2547 18.5205 12.3334 18.5054 12.4092C18.4903 12.4851 18.453 12.5548 18.3982 12.6094C18.3435 12.6641 18.2738 12.7013 18.1979 12.7164C18.122 12.7315 18.0434 12.7237 17.9719 12.6941C17.9004 12.6645 17.8394 12.6143 17.7964 12.55C17.7534 12.4856 17.7305 12.41 17.7305 12.3327C17.7305 12.2812 17.7406 12.2303 17.7603 12.1828C17.78 12.1353 17.8088 12.0922 17.8452 12.0559C17.8816 12.0195 17.9248 11.9907 17.9723 11.9711C18.0198 11.9514 18.0707 11.9414 18.1221 11.9414Z" fill="white"/>
<mask id="mask15_512_3662" style="mask-type:luminance" maskUnits="userSpaceOnUse" x="17" y="11" width="2" height="2">
<path fill-rule="evenodd" clip-rule="evenodd" d="M18.1221 11.9414C18.1995 11.9415 18.2751 11.9645 18.3394 12.0075C18.4037 12.0506 18.4537 12.1117 18.4833 12.1832C18.5128 12.2547 18.5205 12.3334 18.5054 12.4092C18.4903 12.4851 18.453 12.5548 18.3982 12.6094C18.3435 12.6641 18.2738 12.7013 18.1979 12.7164C18.122 12.7315 18.0434 12.7237 17.9719 12.6941C17.9004 12.6645 17.8394 12.6143 17.7964 12.55C17.7534 12.4856 17.7305 12.41 17.7305 12.3327C17.7305 12.2812 17.7406 12.2303 17.7603 12.1828C17.78 12.1353 17.8088 12.0922 17.8452 12.0559C17.8816 12.0195 17.9248 11.9907 17.9723 11.9711C18.0198 11.9514 18.0707 11.9414 18.1221 11.9414Z" fill="white"/>
</mask>
<g mask="url(#mask15_512_3662)">
<path d="M18.5138 11.9414H17.7305V12.7243H18.5138V11.9414Z" fill="white"/>
</g>
<path fill-rule="evenodd" clip-rule="evenodd" d="M21.1397 9.02734C21.2172 9.02734 21.2929 9.05031 21.3573 9.09335C21.4217 9.13638 21.4719 9.19755 21.5015 9.26912C21.5312 9.34068 21.5389 9.41943 21.5238 9.4954C21.5087 9.57137 21.4714 9.64116 21.4166 9.69593C21.3619 9.7507 21.2921 9.78801 21.2161 9.80312C21.1401 9.81823 21.0614 9.81047 20.9898 9.78083C20.9183 9.75119 20.8571 9.70099 20.814 9.63658C20.771 9.57218 20.748 9.49645 20.748 9.41899C20.748 9.31512 20.7893 9.2155 20.8628 9.14206C20.9362 9.06861 21.0358 9.02734 21.1397 9.02734Z" fill="white"/>
<mask id="mask16_512_3662" style="mask-type:luminance" maskUnits="userSpaceOnUse" x="20" y="9" width="2" height="1">
<path fill-rule="evenodd" clip-rule="evenodd" d="M21.1397 9.02734C21.2172 9.02734 21.2929 9.05031 21.3573 9.09335C21.4217 9.13638 21.4719 9.19755 21.5015 9.26912C21.5312 9.34068 21.5389 9.41943 21.5238 9.4954C21.5087 9.57137 21.4714 9.64116 21.4166 9.69593C21.3619 9.7507 21.2921 9.78801 21.2161 9.80312C21.1401 9.81823 21.0614 9.81047 20.9898 9.78083C20.9183 9.75119 20.8571 9.70099 20.814 9.63658C20.771 9.57218 20.748 9.49645 20.748 9.41899C20.748 9.31512 20.7893 9.2155 20.8628 9.14206C20.9362 9.06861 21.0358 9.02734 21.1397 9.02734Z" fill="white"/>
</mask>
<g mask="url(#mask16_512_3662)">
<path d="M21.5313 9.02734H20.748V9.81064H21.5313V9.02734Z" fill="white"/>
</g>
<path fill-rule="evenodd" clip-rule="evenodd" d="M22.8703 15.8735C22.9845 15.8735 23.0962 15.9074 23.1911 15.9708C23.2861 16.0343 23.3601 16.1245 23.4038 16.23C23.4475 16.3355 23.4589 16.4516 23.4366 16.5636C23.4144 16.6756 23.3594 16.7784 23.2786 16.8592C23.1979 16.9399 23.095 16.9949 22.983 17.0172C22.871 17.0395 22.7549 17.028 22.6494 16.9843C22.5439 16.9406 22.4537 16.8666 22.3903 16.7717C22.3268 16.6767 22.293 16.5651 22.293 16.4509C22.293 16.2978 22.3538 16.1509 22.4621 16.0426C22.5704 15.9344 22.7172 15.8735 22.8703 15.8735Z" fill="white"/>
<mask id="mask17_512_3662" style="mask-type:luminance" maskUnits="userSpaceOnUse" x="22" y="15" width="2" height="3">
<path fill-rule="evenodd" clip-rule="evenodd" d="M22.8703 15.8735C22.9845 15.8735 23.0962 15.9074 23.1911 15.9708C23.2861 16.0343 23.3601 16.1245 23.4038 16.23C23.4475 16.3355 23.4589 16.4516 23.4366 16.5636C23.4144 16.6756 23.3594 16.7784 23.2786 16.8592C23.1979 16.9399 23.095 16.9949 22.983 17.0172C22.871 17.0395 22.7549 17.028 22.6494 16.9843C22.5439 16.9406 22.4537 16.8666 22.3903 16.7717C22.3268 16.6767 22.293 16.5651 22.293 16.4509C22.293 16.2978 22.3538 16.1509 22.4621 16.0426C22.5704 15.9344 22.7172 15.8735 22.8703 15.8735Z" fill="white"/>
</mask>
<g mask="url(#mask17_512_3662)">
<path d="M23.4477 15.8735H22.293V17.0283H23.4477V15.8735Z" fill="white"/>
</g>
<path fill-rule="evenodd" clip-rule="evenodd" d="M8.19304 16.2334C8.30278 16.2333 8.41008 16.2658 8.50136 16.3267C8.59265 16.3876 8.66381 16.4742 8.70587 16.5756C8.74792 16.677 8.75896 16.7885 8.7376 16.8962C8.71624 17.0038 8.66344 17.1027 8.58587 17.1803C8.5083 17.2579 8.40945 17.3108 8.30182 17.3323C8.19419 17.3537 8.08263 17.3427 7.98124 17.3007C7.87984 17.2588 7.79317 17.1877 7.73219 17.0964C7.67122 17.0052 7.63867 16.8979 7.63867 16.7882C7.63867 16.6411 7.69707 16.5001 7.80102 16.396C7.90497 16.292 8.04597 16.2335 8.19304 16.2334Z" fill="white"/>
<mask id="mask18_512_3662" style="mask-type:luminance" maskUnits="userSpaceOnUse" x="7" y="16" width="2" height="2">
<path fill-rule="evenodd" clip-rule="evenodd" d="M8.19304 16.2334C8.30278 16.2333 8.41008 16.2658 8.50136 16.3267C8.59265 16.3876 8.66381 16.4742 8.70587 16.5756C8.74792 16.677 8.75896 16.7885 8.7376 16.8962C8.71624 17.0038 8.66344 17.1027 8.58587 17.1803C8.5083 17.2579 8.40945 17.3108 8.30182 17.3323C8.19419 17.3537 8.08263 17.3427 7.98124 17.3007C7.87984 17.2588 7.79317 17.1877 7.73219 17.0964C7.67122 17.0052 7.63867 16.8979 7.63867 16.7882C7.63867 16.6411 7.69707 16.5001 7.80102 16.396C7.90497 16.292 8.04597 16.2335 8.19304 16.2334Z" fill="white"/>
</mask>
<g mask="url(#mask18_512_3662)">
<path d="M8.74781 16.2334H7.63867V17.3425H8.74781V16.2334Z" fill="white"/>
</g>
<path fill-rule="evenodd" clip-rule="evenodd" d="M19.7135 23.2656C20.028 23.2656 20.3355 23.3589 20.597 23.5336C20.8586 23.7084 21.0624 23.9567 21.1828 24.2473C21.3032 24.5379 21.3347 24.8577 21.2734 25.1662C21.212 25.4747 21.0606 25.7581 20.8382 25.9805C20.6158 26.2029 20.3325 26.3545 20.024 26.4159C19.7155 26.4773 19.3957 26.4458 19.1051 26.3255C18.8145 26.2052 18.5661 26.0014 18.3913 25.7399C18.2165 25.4784 18.1231 25.171 18.123 24.8565C18.123 24.6476 18.1641 24.4407 18.244 24.2477C18.3239 24.0547 18.441 23.8793 18.5887 23.7316C18.7364 23.5839 18.9118 23.4667 19.1047 23.3867C19.2977 23.3068 19.5046 23.2656 19.7135 23.2656Z" fill="white"/>
<mask id="mask19_512_3662" style="mask-type:luminance" maskUnits="userSpaceOnUse" x="18" y="23" width="4" height="4">
<path fill-rule="evenodd" clip-rule="evenodd" d="M19.7135 23.2656C20.028 23.2656 20.3355 23.3589 20.597 23.5336C20.8586 23.7084 21.0624 23.9567 21.1828 24.2473C21.3032 24.5379 21.3347 24.8577 21.2734 25.1662C21.212 25.4747 21.0606 25.7581 20.8382 25.9805C20.6158 26.2029 20.3325 26.3545 20.024 26.4159C19.7155 26.4773 19.3957 26.4458 19.1051 26.3255C18.8145 26.2052 18.5661 26.0014 18.3913 25.7399C18.2165 25.4784 18.1231 25.171 18.123 24.8565C18.123 24.6476 18.1641 24.4407 18.244 24.2477C18.3239 24.0547 18.441 23.8793 18.5887 23.7316C18.7364 23.5839 18.9118 23.4667 19.1047 23.3867C19.2977 23.3068 19.5046 23.2656 19.7135 23.2656Z" fill="white"/>
</mask>
<g mask="url(#mask19_512_3662)">
<path d="M21.3043 23.2656H18.123V26.4465H21.3043V23.2656Z" fill="white"/>
</g>
<path d="M22.5988 19.8198L19.418 24.6616L20.0065 25.0483L23.1873 20.2064L22.5988 19.8198Z" fill="white"/>
<mask id="mask20_512_3662" style="mask-type:luminance" maskUnits="userSpaceOnUse" x="19" y="19" width="5" height="7">
<path d="M22.5988 19.8198L19.418 24.6616L20.0065 25.0483L23.1873 20.2064L22.5988 19.8198Z" fill="white"/>
</mask>
<g mask="url(#mask20_512_3662)">
<path d="M23.1871 19.8213H19.418V25.05H23.1871V19.8213Z" fill="white"/>
</g>
<path fill-rule="evenodd" clip-rule="evenodd" d="M19.6276 21.4521C19.7031 21.4521 19.7769 21.4745 19.8397 21.5165C19.9024 21.5584 19.9513 21.618 19.9802 21.6878C20.0091 21.7575 20.0166 21.8343 20.0018 21.9083C19.9871 21.9823 19.9507 22.0503 19.8973 22.1036C19.8439 22.157 19.7759 22.1933 19.7018 22.208C19.6278 22.2227 19.5511 22.215 19.4814 22.1861C19.4116 22.1572 19.3521 22.1082 19.3102 22.0454C19.2683 21.9826 19.246 21.9088 19.2461 21.8333C19.2461 21.7832 19.256 21.7336 19.2751 21.6873C19.2943 21.6411 19.3224 21.599 19.3579 21.5636C19.3933 21.5282 19.4354 21.5002 19.4817 21.481C19.528 21.4619 19.5776 21.4521 19.6276 21.4521Z" fill="white"/>
<mask id="mask21_512_3662" style="mask-type:luminance" maskUnits="userSpaceOnUse" x="19" y="21" width="2" height="2">
<path fill-rule="evenodd" clip-rule="evenodd" d="M19.6276 21.4521C19.7031 21.4521 19.7769 21.4745 19.8397 21.5165C19.9024 21.5584 19.9513 21.618 19.9802 21.6878C20.0091 21.7575 20.0166 21.8343 20.0018 21.9083C19.9871 21.9823 19.9507 22.0503 19.8973 22.1036C19.8439 22.157 19.7759 22.1933 19.7018 22.208C19.6278 22.2227 19.5511 22.215 19.4814 22.1861C19.4116 22.1572 19.3521 22.1082 19.3102 22.0454C19.2683 21.9826 19.246 21.9088 19.2461 21.8333C19.2461 21.7832 19.256 21.7336 19.2751 21.6873C19.2943 21.6411 19.3224 21.599 19.3579 21.5636C19.3933 21.5282 19.4354 21.5002 19.4817 21.481C19.528 21.4619 19.5776 21.4521 19.6276 21.4521Z" fill="white"/>
</mask>
<g mask="url(#mask21_512_3662)">
<path d="M20.0088 21.4521H19.2461V22.2149H20.0088V21.4521Z" fill="white"/>
</g>
<defs>
<linearGradient id="paint0_linear_512_3662" x1="2.24813" y1="2.11799" x2="30.4649" y2="28.0669" gradientUnits="userSpaceOnUse">
<stop stop-color="#FF387A"/>
<stop offset="0.167" stop-color="#E6398C"/>
<stop offset="0.524" stop-color="#A63EBA"/>
<stop offset="1" stop-color="#4845FF"/>
</linearGradient>
</defs>
</svg>
